<?xml version="1.0" encoding="UTF-8" standalone="no"?><svg xmlns="http://www.w3.org/2000/svg" xmlns:xlink="http://www.w3.org/1999/xlink" fill="#000000" height="520" preserveAspectRatio="xMidYMid meet" version="1" viewBox="0.5 0.5 519.0 519.0" width="520" zoomAndPan="magnify"><g><g><g id="change1_3"><path d="M398.574,519.5H121.425C54.747,519.5,0.5,465.253,0.5,398.574V121.425C0.5,54.747,54.747,0.5,121.425,0.5 h277.149C465.253,0.5,519.5,54.747,519.5,121.425v277.149C519.5,465.253,465.253,519.5,398.574,519.5z M121.425,20.5 C65.775,20.5,20.5,65.775,20.5,121.425v277.149c0,55.648,45.275,100.926,100.925,100.926h277.149 c55.648,0,100.926-45.275,100.926-100.926V121.425c0-55.65-45.275-100.925-100.926-100.925H121.425z" fill="#ffffff"/></g><g id="change1_4"><path d="M260,373.385c-68.035,0-123.385-55.351-123.385-123.385c0-68.035,55.351-123.385,123.385-123.385 S383.385,181.965,383.385,250C383.385,318.034,328.034,373.385,260,373.385z M260,146.615 c-57.007,0-103.385,46.378-103.385,103.385S202.993,353.385,260,353.385S363.385,307.007,363.385,250 C363.385,192.994,317.007,146.615,260,146.615z" fill="#ffffff"/></g><g id="change1_1"><path d="M204.857,250h-20c0-41.434,33.709-75.143,75.143-75.143v20C229.594,194.857,204.857,219.594,204.857,250z" fill="#ffffff"/></g><g id="change1_2"><path d="M424.473,129.422c-19.149,0-34.73-15.581-34.73-34.732s15.581-34.732,34.73-34.732 c19.15,0,34.73,15.581,34.73,34.732S443.623,129.422,424.473,129.422z M424.473,79.957c-8.123,0-14.73,6.609-14.73,14.732 s6.607,14.732,14.73,14.732c8.122,0,14.73-6.609,14.73-14.732S432.595,79.957,424.473,79.957z" fill="#ffffff"/></g></g></g></svg>