<?xml version="1.0" standalone="no"?>
<!DOCTYPE svg PUBLIC "-//W3C//DTD SVG 20010904//EN"
 "http://www.w3.org/TR/2001/REC-SVG-20010904/DTD/svg10.dtd">
<svg version="1.0" xmlns="http://www.w3.org/2000/svg"
 width="145.000000pt" height="145.000000pt" viewBox="0 0 145.000000 145.000000"
 preserveAspectRatio="xMidYMid meet">
<metadata>
Created by potrace 1.14, written by Peter Selinger 2001-2017
</metadata>
<g transform="translate(0.000000,145.000000) scale(0.100000,-0.100000)"
fill="#000000" stroke="none">
<path d="M295 1422 c-123 -44 -199 -146 -197 -264 3 -204 214 -332 395 -238
90 47 141 135 141 240 -1 108 -52 191 -148 241 -40 22 -155 34 -191 21z"/>
<path d="M202 800 c-40 -11 -77 -22 -81 -25 -5 -2 -7 -22 -4 -42 6 -58 54
-247 64 -258 5 -5 9 -16 9 -25 0 -24 90 -174 138 -229 58 -68 161 -134 257
-167 96 -32 250 -40 355 -18 173 36 320 159 396 330 24 55 23 57 -26 24 -72
-49 -216 -49 -314 -1 -78 38 -112 72 -183 178 -92 139 -175 204 -300 237 -76
20 -226 18 -311 -4z"/>
<path d="M1115 780 c-66 -21 -117 -91 -121 -164 -7 -169 190 -257 313 -140 52
50 65 158 28 222 -41 69 -142 107 -220 82z"/>
</g>
</svg>
